<svg width="289" height="289" viewBox="0 0 289 289" fill="none" xmlns="http://www.w3.org/2000/svg">
<path d="M99.3438 243.844C104.332 243.844 108.375 239.8 108.375 234.812C108.375 229.825 104.332 225.781 99.3438 225.781C94.3559 225.781 90.3125 229.825 90.3125 234.812C90.3125 239.8 94.3559 243.844 99.3438 243.844Z" stroke="#4669E8" stroke-width="32" stroke-linecap="round" stroke-linejoin="round"/>
<path d="M225.781 243.844C230.769 243.844 234.812 239.8 234.812 234.812C234.812 229.825 230.769 225.781 225.781 225.781C220.793 225.781 216.75 229.825 216.75 234.812C216.75 239.8 220.793 243.844 225.781 243.844Z" stroke="#4669E8" stroke-width="32" stroke-linecap="round" stroke-linejoin="round"/>
<path d="M27.0938 45.1562H63.2188L90.3125 198.688H234.812" stroke="#CCD1D7" stroke-width="32" stroke-linecap="round" stroke-linejoin="round"/>
<path d="M90.3125 162.562H231.11C232.154 162.563 233.166 162.202 233.974 161.54C234.782 160.878 235.336 159.957 235.541 158.933L251.797 77.6518C251.928 76.9964 251.912 76.32 251.75 75.6715C251.588 75.023 251.284 74.4186 250.86 73.9018C250.436 73.385 249.903 72.9688 249.299 72.6831C248.695 72.3975 248.034 72.2495 247.366 72.25H72.25" stroke="#4669E8" stroke-width="32" stroke-linecap="round" stroke-linejoin="round"/>
</svg>
