<svg width="181" height="181" viewBox="0 0 181 181" fill="none" xmlns="http://www.w3.org/2000/svg">
    <path d="M92.5966 21.5853C92.0351 20.9858 91.2882 20.6512 90.5113 20.6512C89.7344 20.6512 88.9874 20.9858 88.426 21.5853L19.0051 95.6143C18.7103 95.9291 18.4758 96.3074 18.3157 96.7263C18.1556 97.1452 18.0733 97.596 18.0738 98.0515L18.0624 167.53C18.0624 171.103 19.3337 174.529 21.5967 177.055C23.8596 179.581 26.9288 181 30.1291 181H66.3667C67.9668 181 69.5014 180.29 70.6329 179.027C71.7644 177.764 72.4 176.051 72.4 174.265V117.019C72.4 116.125 72.7178 115.269 73.2836 114.637C73.8493 114.006 74.6166 113.651 75.4167 113.651H105.583C106.383 113.651 107.151 114.006 107.716 114.637C108.282 115.269 108.6 116.125 108.6 117.019V174.265C108.6 176.051 109.236 177.764 110.367 179.027C111.499 180.29 113.033 181 114.633 181H150.856C154.056 181 157.125 179.581 159.388 177.055C161.651 174.529 162.922 171.103 162.922 167.53V98.0515C162.923 97.596 162.841 97.1452 162.681 96.7263C162.52 96.3074 162.286 95.9291 161.991 95.6143L92.5966 21.5853Z" fill="#CCD1D7" />
    <path d="M179.08 89.3003L150.875 59.1786V13.4698C150.875 11.6836 150.239 9.97052 149.107 8.70748C147.976 7.44445 146.441 6.73488 144.841 6.73488H126.741C125.141 6.73488 123.607 7.44445 122.475 8.70748C121.344 9.97052 120.708 11.6836 120.708 13.4698V26.9395L98.8674 3.62842C96.8236 1.32172 93.7843 0 90.4999 0C87.2268 0 84.1951 1.32172 82.1513 3.63263L1.94589 89.2919C-0.399564 91.8175 -0.693689 95.9721 1.4406 98.7081C1.97655 99.3988 2.63279 99.9604 3.36937 100.359C4.10595 100.757 4.90748 100.984 5.72516 101.026C6.54284 101.068 7.35959 100.924 8.12568 100.602C8.89177 100.28 9.59119 99.7875 10.1814 99.1543L88.426 15.6923C88.9874 15.0928 89.7343 14.7582 90.5112 14.7582C91.2881 14.7582 92.0351 15.0928 92.5965 15.6923L170.849 99.1543C172.001 100.388 173.545 101.062 175.142 101.027C176.739 100.992 178.258 100.252 179.367 98.9691C181.682 96.292 181.49 91.8722 179.08 89.3003Z" fill="#CCD1D7" />
    <path d="M69 121C69 109.954 77.9543 101 89 101H96C107.046 101 116 109.954 116 121V181H69V121Z" fill="white" />
</svg>