<svg width="212" height="212" viewBox="0 0 212 212" fill="none" xmlns="http://www.w3.org/2000/svg">
<path d="M207.543 150.365C206.628 149.393 205.728 148.421 204.846 147.483C192.71 134.547 185.368 126.739 185.368 90.119C185.368 71.1599 180.222 55.6037 170.077 43.9365C162.597 35.3174 152.486 28.779 139.159 23.9468C138.988 23.8628 138.834 23.7525 138.707 23.6211C133.913 9.4747 120.796 0 106.001 0C91.207 0 78.095 9.4747 73.3015 23.6065C73.1735 23.7331 73.0225 23.8399 72.8546 23.9225C41.7544 35.2056 26.6401 56.8531 26.6401 90.1045C26.6401 126.739 19.3091 134.547 7.16245 147.468C6.27986 148.406 5.38072 149.359 4.46504 150.351C2.0997 152.865 0.601069 155.923 0.146494 159.164C-0.308082 162.405 0.300429 165.693 1.90001 168.639C5.3035 174.959 12.5573 178.882 20.8371 178.882H191.226C199.468 178.882 206.672 174.964 210.086 168.673C211.693 165.726 212.307 162.436 211.856 159.191C211.406 155.946 209.909 152.883 207.543 150.365Z" fill="#CCD1D7"/>
<path d="M106.494 212C114.465 211.995 122.286 210.429 129.127 207.468C135.968 204.506 141.574 200.259 145.35 195.178C145.528 194.935 145.616 194.662 145.605 194.386C145.595 194.111 145.486 193.842 145.289 193.607C145.093 193.371 144.815 193.176 144.484 193.04C144.152 192.905 143.778 192.834 143.397 192.834H69.602C69.221 192.833 68.8461 192.904 68.5139 193.039C68.1817 193.174 67.9034 193.369 67.7062 193.605C67.5091 193.841 67.3997 194.11 67.3887 194.385C67.3778 194.661 67.4657 194.934 67.6438 195.178C71.4198 200.259 77.0249 204.505 83.8647 207.466C90.7045 210.428 98.5241 211.995 106.494 212Z" fill="#CCD1D7"/>
</svg>
