<svg width="170" height="186" viewBox="0 0 170 186" fill="none" xmlns="http://www.w3.org/2000/svg">
<path d="M116.193 13.2993C108.25 4.72291 97.1547 0 84.9086 0C72.5972 0 61.4655 4.69433 53.5586 13.2176C45.566 21.8348 41.6717 33.5461 42.5861 46.1923C44.3985 71.1416 63.384 91.4375 84.9086 91.4375C106.433 91.4375 125.386 71.1457 127.227 46.2004C128.154 33.6686 124.235 21.9817 116.193 13.2993Z" fill="#CCD1D7"/>
<path d="M156.752 185.375H13.0648C11.1841 185.399 9.32156 185.004 7.61273 184.218C5.9039 183.433 4.39175 182.276 3.18632 180.832C0.532999 177.66 -0.536494 173.329 0.255421 168.949C3.70065 149.837 14.4527 133.782 31.3523 122.512C46.366 112.507 65.3842 107 84.9086 107C104.433 107 123.451 112.511 138.465 122.512C155.364 133.778 166.117 149.833 169.562 168.945C170.354 173.325 169.284 177.656 166.631 180.828C165.426 182.272 163.914 183.43 162.205 184.217C160.496 185.003 158.633 185.399 156.752 185.375Z" fill="#CCD1D7"/>
</svg>
